<?xml version="1.0" encoding="utf-8"?>
<!-- Generator: Adobe Illustrator 25.2.3, SVG Export Plug-In . SVG Version: 6.00 Build 0)  -->
<svg version="1.1" id="Layer_1" xmlns="http://www.w3.org/2000/svg" xmlns:xlink="http://www.w3.org/1999/xlink" x="0px" y="0px"
	 viewBox="0 0 100 100" style="enable-background:new 0 0 100 100;" xml:space="preserve">
<style type="text/css">
	.st0{fill:#FFFFFF;}
</style>
<g>
	<circle class="st0" cx="50" cy="50" r="36.4"/>
	<g>
		<path d="M79.9,46.2h0.3c0.2,0,0.3,0,0.3-0.1c0.1,0,0.1-0.1,0.1-0.2c0,0,0-0.1,0-0.1c0,0-0.1-0.1-0.1-0.1c0,0-0.1,0-0.3,0h-0.3
			V46.2z M79.7,47.1v-1.5h0.6c0.2,0,0.3,0,0.4,0c0.1,0,0.2,0.1,0.2,0.1c0.1,0.1,0.1,0.1,0.1,0.2c0,0.1,0,0.2-0.1,0.3
			c-0.1,0.1-0.2,0.1-0.3,0.1c0.1,0,0.1,0.1,0.1,0.1c0.1,0.1,0.1,0.2,0.2,0.3l0.2,0.3h-0.3l-0.1-0.2c-0.1-0.2-0.2-0.3-0.3-0.4
			c0,0-0.1-0.1-0.2-0.1h-0.2v0.7H79.7z M80.3,45.1c-0.2,0-0.4,0.1-0.6,0.2c-0.2,0.1-0.4,0.3-0.5,0.4c-0.1,0.2-0.2,0.4-0.2,0.6
			c0,0.2,0.1,0.4,0.2,0.6c0.1,0.2,0.3,0.3,0.5,0.4c0.2,0.1,0.4,0.2,0.6,0.2c0.2,0,0.4-0.1,0.6-0.2c0.2-0.1,0.4-0.3,0.5-0.4
			c0.1-0.2,0.2-0.4,0.2-0.6c0-0.2-0.1-0.4-0.2-0.6c-0.1-0.2-0.3-0.3-0.5-0.4C80.8,45.1,80.6,45.1,80.3,45.1z M80.3,44.8
			c0.3,0,0.5,0.1,0.8,0.2c0.2,0.1,0.4,0.3,0.6,0.5c0.1,0.2,0.2,0.5,0.2,0.7c0,0.2-0.1,0.5-0.2,0.7c-0.1,0.2-0.3,0.4-0.6,0.5
			c-0.2,0.1-0.5,0.2-0.8,0.2c-0.3,0-0.5-0.1-0.8-0.2c-0.2-0.1-0.4-0.3-0.6-0.5c-0.1-0.2-0.2-0.5-0.2-0.7c0-0.3,0.1-0.5,0.2-0.7
			c0.1-0.2,0.3-0.4,0.6-0.5C79.8,44.9,80.1,44.8,80.3,44.8z"/>
		<path d="M22,48l-1.4,3.3h2.8L22,48z M27.1,55.2v-9.1h0.2l5.4,7v-7h0.8v9.1h-0.2L28,48.3v6.9H27.1z M34.8,46.1h0.9l2.1,3.7l2-3.7
			h0.9l-2.6,4.7v4.3h-0.8v-4.3L34.8,46.1z M44.7,46.1h0.8v3.4l3.2-3.4h1.1L46,50.1l4.2,5h-1.1l-3.5-4.2v4.2h-0.8V46.1z M51.4,46.1
			h0.8v8.2h3.1v0.9h-3.9V46.1z M60.2,48l-1.4,3.3h2.8L60.2,48z M60.3,46.1l3.8,9.1h-0.9l-1.3-3h-3.5l-1.3,3h-0.9l3.8-9.1H60.3z
			 M65.3,46.1h4.6V47h-3.8v2.8h3.8v0.9h-3.8v3.6h3.8v0.9h-4.6V46.1z M71.3,55.2v-9.1h0.2l5.4,7v-7h0.8v9.1h-0.2l-5.3-6.9v6.9H71.3z
			 M22.1,46.1l3.8,9.1H25l-1.3-3h-3.5l-1.3,3h-0.9l3.8-9.1H22.1z"/>
	</g>
	<g>
		<g>
			<path d="M40,15c1.4-0.4,2.9-0.7,4.4-1L57.8,0.6c-1-0.2-2-0.3-3.1-0.4L40,15z"/>
			<path d="M0.6,57.8L14,44.4c0.2-1.5,0.6-3,1-4.4L0.2,54.8C0.3,55.8,0.4,56.8,0.6,57.8z"/>
		</g>
		<g>
			<path d="M50,13.6c1.1,0,2.2,0.1,3.3,0.2L64.8,2.2C63.9,2,63,1.7,62.1,1.5L50,13.6z"/>
			<path d="M2.2,64.9l11.5-11.5c-0.1-1.1-0.2-2.2-0.2-3.3L1.5,62.2C1.7,63.1,1.9,64,2.2,64.9z"/>
		</g>
		<g>
			<path d="M57.8,14.5c0.9,0.2,1.8,0.4,2.7,0.7L71.1,4.7c-0.8-0.4-1.6-0.7-2.4-1L57.8,14.5z"/>
			<path d="M4.6,71.1l10.5-10.5c-0.3-0.9-0.5-1.8-0.7-2.7L3.6,68.7C3.9,69.5,4.3,70.3,4.6,71.1z"/>
		</g>
		<g>
			<path d="M74.5,6.4L64.4,16.6c0.8,0.3,1.6,0.7,2.3,1.1l10-10C75.9,7.3,75.2,6.8,74.5,6.4z"/>
			<path d="M7.7,76.7l10-10c-0.4-0.8-0.8-1.5-1.1-2.3L6.4,74.5C6.8,75.3,7.2,76,7.7,76.7z"/>
		</g>
		<g>
			<path d="M11.3,81.7L21,72c-0.5-0.7-1-1.3-1.4-2l-9.8,9.8C10.3,80.4,10.8,81.1,11.3,81.7z"/>
			<path d="M70,19.6c0.7,0.5,1.4,0.9,2,1.4l9.7-9.7c-0.6-0.5-1.3-1-1.9-1.5L70,19.6z"/>
		</g>
		<path d="M5.7,26.8L26.8,5.7C17.8,10.4,10.4,17.8,5.7,26.8z"/>
		<path d="M2,35.6c-0.4,1.5-0.8,3-1.1,4.6L40.2,1c-1.6,0.3-3.1,0.7-4.6,1.1L2,35.6z"/>
		<path d="M0.1,46.2C0,47.4,0,48.6,0,49.8l19.2-19.2c2.9-4.6,6.8-8.5,11.4-11.4L49.8,0c-1.2,0-2.4,0.1-3.6,0.2L0.1,46.2z"/>
		<g>
			<path d="M76.5,25.1l9.6-9.6c-0.6-0.6-1.1-1.2-1.7-1.7l-9.6,9.6C75.4,24,76,24.5,76.5,25.1z"/>
			<path d="M23.4,74.8l-9.6,9.6c0.6,0.6,1.1,1.2,1.7,1.7l9.6-9.6C24.5,76,23.9,75.4,23.4,74.8z"/>
		</g>
		<g>
			<path d="M29.9,80.4c-0.7-0.5-1.4-0.9-2-1.4l-9.7,9.7c0.6,0.5,1.3,1,1.9,1.5L29.9,80.4z"/>
			<path d="M88.6,18.3l-9.7,9.7c0.5,0.7,1,1.3,1.4,2l9.8-9.8C89.6,19.5,89.1,18.9,88.6,18.3z"/>
		</g>
		<g>
			<path d="M35.5,83.4c-0.8-0.3-1.6-0.7-2.3-1.1l-9.9,9.9c0.7,0.4,1.4,0.9,2.2,1.3L35.5,83.4z"/>
			<path d="M92.2,23.3l-9.9,9.9c0.4,0.8,0.8,1.5,1.1,2.3l10.1-10.1C93.1,24.7,92.7,24,92.2,23.3z"/>
		</g>
		<g>
			<path d="M42.1,85.5c-0.9-0.2-1.8-0.4-2.7-0.7L28.8,95.3c0.8,0.4,1.6,0.7,2.4,1L42.1,85.5z"/>
			<path d="M95.3,28.9L84.8,39.4c0.3,0.9,0.5,1.8,0.7,2.7l10.8-10.8C96,30.5,95.7,29.7,95.3,28.9z"/>
		</g>
		<g>
			<path d="M49.8,86.4c-1.1,0-2.2-0.1-3.3-0.2L35.1,97.7c0.9,0.3,1.8,0.5,2.7,0.8L49.8,86.4z"/>
			<path d="M97.7,35.1L86.2,46.6c0.1,1.1,0.2,2.2,0.2,3.3l12.1-12.1C98.2,36.9,98,36,97.7,35.1z"/>
		</g>
		<g>
			<path d="M99.3,42.1L86,55.5c-0.2,1.5-0.6,3-1,4.4l14.7-14.7C99.6,44.1,99.5,43.1,99.3,42.1z"/>
			<path d="M59.9,85c-1.4,0.4-2.9,0.7-4.4,1L42.1,99.4c1,0.2,2,0.3,3.1,0.4L59.9,85z"/>
		</g>
		<path d="M99.8,53.7c0.1-1.2,0.1-2.4,0.1-3.6L80.9,69.2C77.9,74,73.9,78,69.2,80.9L50.1,100c1.2,0,2.4-0.1,3.6-0.1L99.8,53.7z"/>
		<path d="M97.9,64.3c0.4-1.5,0.8-3,1.1-4.6L59.7,99c1.6-0.3,3.1-0.7,4.6-1.1L97.9,64.3z"/>
		<path d="M94.3,73.1L73,94.3C82.1,89.6,89.6,82.2,94.3,73.1z"/>
	</g>
</g>
</svg>
